<svg width="121" height="726" viewBox="0 0 121 726" fill="none" xmlns="http://www.w3.org/2000/svg">
<path d="M-346.372 0.525269C-298.774 16.2447 -222.99 48.4984 -150.294 94.1826C-77.6078 139.86 -7.94589 199.004 27.3264 268.525L27.3332 268.539L27.3392 268.552C53.7967 329.499 53.8446 385.392 36.3331 435.732C18.8263 486.058 -16.218 530.8 -59.893 569.489C-147.238 646.864 -269.203 700.12 -354.905 725.479L-355.189 724.521C-269.568 699.185 -147.753 645.984 -60.5561 568.741C-16.9604 530.122 17.9563 485.515 35.3886 435.403C52.8148 385.309 52.7812 329.679 26.4279 268.964C-8.7243 199.69 -78.1991 140.67 -150.826 95.0293C-223.447 49.3924 -299.156 17.1716 -346.685 1.47483L-346.372 0.525269Z" fill="#313131" fill-opacity="0.7"/>
<path d="M-358.44 0.525269C-310.842 16.2447 -235.058 48.4984 -162.362 94.1826C-89.6762 139.86 -20.0143 199.004 15.2581 268.525L15.2648 268.539L15.2708 268.552C41.7283 329.499 41.7762 385.392 24.2647 435.732C6.75793 486.058 -28.2864 530.8 -71.9614 569.489C-159.306 646.864 -281.272 700.12 -366.974 725.479L-367.258 724.521C-281.637 699.185 -159.821 645.984 -72.6245 568.741C-29.0288 530.122 5.88788 485.515 23.3202 435.403C40.7464 385.309 40.7128 329.679 14.3595 268.964C-20.7927 199.69 -90.2675 140.67 -162.894 95.0293C-235.515 49.3924 -311.224 17.1716 -358.754 1.47483L-358.44 0.525269Z" fill="#313131" fill-opacity="0.7"/>
<path d="M-371.928 0.525269C-324.33 16.2447 -248.547 48.4984 -175.85 94.1826C-103.164 139.86 -33.5024 199.004 1.7699 268.525L1.77667 268.539L1.78265 268.552C28.2401 329.499 28.288 385.392 10.7765 435.732C-6.73022 486.058 -41.7745 530.8 -85.4496 569.489C-172.794 646.864 -294.76 700.12 -380.462 725.479L-380.746 724.521C-295.125 699.185 -173.31 645.984 -86.1126 568.741C-42.5169 530.122 -7.60028 485.515 9.83203 435.403C27.2583 385.309 27.2246 329.679 0.871307 268.964C-34.2809 199.69 -103.756 140.67 -176.382 95.0293C-249.003 49.3924 -324.713 17.1716 -372.242 1.47483L-371.928 0.525269Z" fill="#313131" fill-opacity="0.7"/>
<path d="M-386.481 0.525269C-338.883 16.2447 -263.099 48.4984 -190.403 94.1826C-117.717 139.86 -48.0555 199.004 -12.7831 268.525L-12.7763 268.539L-12.7704 268.552C13.6871 329.499 13.735 385.392 -3.77649 435.732C-21.2833 486.058 -56.3276 530.8 -100.003 569.489C-187.347 646.864 -309.313 700.12 -395.015 725.479L-395.299 724.521C-309.678 699.185 -187.863 645.984 -100.666 568.741C-57.0699 530.122 -22.1533 485.515 -4.72098 435.403C12.7053 385.309 12.6716 329.679 -13.6817 268.964C-48.8339 199.69 -118.309 140.67 -190.935 95.0293C-263.556 49.3924 -339.266 17.1716 -386.795 1.47483L-386.481 0.525269Z" fill="#313131" fill-opacity="0.7"/>
<path d="M-400.324 0.525269C-352.727 16.2447 -276.943 48.4984 -204.246 94.1826C-131.56 139.86 -61.8986 199.004 -26.6262 268.525L-26.6194 268.539L-26.6135 268.552C-0.156006 329.499 -0.108093 385.392 -17.6196 435.732C-35.1263 486.058 -70.1707 530.8 -113.846 569.489C-201.19 646.864 -323.156 700.12 -408.858 725.479L-409.142 724.521C-323.521 699.185 -201.706 645.984 -114.509 568.741C-70.9131 530.122 -35.9964 485.515 -18.5641 435.403C-1.13785 385.309 -1.17148 329.679 -27.5248 268.964C-62.677 199.69 -132.152 140.67 -204.778 95.0293C-277.399 49.3924 -353.109 17.1716 -400.638 1.47483L-400.324 0.525269Z" fill="#313131" fill-opacity="0.7"/>
<path d="M-274.372 0.525269C-226.774 16.2447 -150.99 48.4984 -78.2937 94.1826C-5.60785 139.86 64.0541 199.004 99.3264 268.525L99.3332 268.539L99.3392 268.552C125.797 329.499 125.845 385.392 108.333 435.732C90.8263 486.058 55.782 530.8 12.107 569.489C-75.2377 646.864 -197.203 700.12 -282.905 725.479L-283.189 724.521C-197.568 699.185 -75.753 645.984 11.4439 568.741C55.0396 530.122 89.9562 485.515 107.389 435.403C124.815 385.309 124.781 329.679 98.4279 268.964C63.2757 199.69 -6.19913 140.67 -78.8258 95.0293C-151.447 49.3924 -227.156 17.1716 -274.685 1.47483L-274.372 0.525269Z" fill="#313131" fill-opacity="0.7"/>
<path d="M-286.44 0.525269C-238.842 16.2447 -163.058 48.4984 -90.3621 94.1826C-17.6763 139.86 51.9857 199.004 87.258 268.525L87.2648 268.539L87.2708 268.552C113.728 329.499 113.776 385.392 96.2646 435.732C78.7579 486.058 43.7136 530.8 0.0385742 569.489C-87.3061 646.864 -209.272 700.12 -294.974 725.479L-295.258 724.521C-209.637 699.185 -87.8214 645.984 -0.624542 568.741C42.9712 530.122 77.8878 485.515 95.3202 435.403C112.746 385.309 112.713 329.679 86.3594 268.964C51.2072 199.69 -18.2675 140.67 -90.8942 95.0293C-163.515 49.3924 -239.224 17.1716 -286.754 1.47483L-286.44 0.525269Z" fill="#313131" fill-opacity="0.7"/>
<path d="M-299.928 0.525269C-252.331 16.2447 -176.547 48.4984 -103.85 94.1826C-31.1644 139.86 38.4975 199.004 73.7699 268.525L73.7766 268.539L73.7826 268.552C100.24 329.499 100.288 385.392 82.7765 435.732C65.2697 486.058 30.2254 530.8 -13.4496 569.489C-100.794 646.864 -222.76 700.12 -308.462 725.479L-308.746 724.521C-223.125 699.185 -101.31 645.984 -14.1127 568.741C29.4831 530.122 64.3997 485.515 81.832 435.403C99.2582 385.309 99.2246 329.679 72.8713 268.964C37.7191 199.69 -31.7557 140.67 -104.382 95.0293C-177.003 49.3924 -252.713 17.1716 -300.242 1.47483L-299.928 0.525269Z" fill="#313131" fill-opacity="0.7"/>
<path d="M-314.481 0.525269C-266.883 16.2447 -191.1 48.4984 -118.403 94.1826C-45.7174 139.86 23.9445 199.004 59.2169 268.525L59.2236 268.539L59.2296 268.552C85.6871 329.499 85.735 385.392 68.2235 435.732C50.7167 486.058 15.6724 530.8 -28.0026 569.489C-115.347 646.864 -237.313 700.12 -323.015 725.479L-323.299 724.521C-237.678 699.185 -115.863 645.984 -28.6657 568.741C14.93 530.122 49.8467 485.515 67.279 435.403C84.7052 385.309 84.6716 329.679 58.3183 268.964C23.1661 199.69 -46.3087 140.67 -118.935 95.0293C-191.556 49.3924 -267.266 17.1716 -314.795 1.47483L-314.481 0.525269Z" fill="#313131" fill-opacity="0.7"/>
<path d="M-328.324 0.525269C-280.727 16.2447 -204.943 48.4984 -132.246 94.1826C-59.5605 139.86 10.1014 199.004 45.3737 268.525L45.3805 268.539L45.3865 268.552C71.844 329.499 71.8918 385.392 54.3804 435.732C36.8736 486.058 1.82928 530.8 -41.8457 569.489C-129.19 646.864 -251.156 700.12 -336.858 725.479L-337.142 724.521C-251.521 699.185 -129.706 645.984 -42.5088 568.741C1.08691 530.122 36.0036 485.515 53.4359 435.403C70.8621 385.309 70.8285 329.679 44.4752 268.964C9.32294 199.69 -60.1518 140.67 -132.778 95.0293C-205.399 49.3924 -281.109 17.1716 -328.638 1.47483L-328.324 0.525269Z" fill="#313131" fill-opacity="0.7"/>
</svg>
