<svg width="465" height="612" viewBox="0 0 465 612" fill="none" xmlns="http://www.w3.org/2000/svg">
<path d="M483.585 -113C367.226 -81.5838 112.974 15.9491 26.8332 154.751C-102.377 398.084 284.444 560.306 494.005 611M498.347 -113C381.988 -81.5838 127.736 15.9491 41.5952 154.751C-87.6152 398.084 299.206 560.306 508.767 611M514.846 -113C398.487 -81.5838 144.234 15.9491 58.0939 154.751C-71.1166 398.084 315.704 560.306 525.266 611M532.647 -113C416.288 -81.5838 162.035 15.9491 75.8951 154.751C-53.3154 398.084 333.505 560.306 543.067 611M549.58 -113C433.221 -81.5838 178.968 15.9491 92.8279 154.751C-36.3826 398.084 350.438 560.306 560 611M562.585 -117C446.226 -85.5838 191.974 11.9491 105.833 150.751C-23.3772 394.084 363.444 556.306 573.005 607M577.347 -117C460.988 -85.5838 206.736 11.9491 120.595 150.751C-8.6152 394.084 378.206 556.306 587.767 607M593.846 -117C477.487 -85.5838 223.234 11.9491 137.094 150.751C7.88345 394.084 394.704 556.306 604.266 607M611.647 -117C495.288 -85.5838 241.035 11.9491 154.895 150.751C25.6846 394.084 412.505 556.306 622.067 607M628.58 -117C512.221 -85.5838 257.968 11.9491 171.828 150.751C42.6174 394.084 429.438 556.306 639 607M640.585 -117C524.226 -85.5838 269.974 11.9491 183.833 150.751C54.6228 394.084 441.444 556.306 651.005 607M655.347 -117C538.988 -85.5838 284.736 11.9491 198.595 150.751C69.3848 394.084 456.206 556.306 665.767 607M671.846 -117C555.487 -85.5838 301.234 11.9491 215.094 150.751C85.8835 394.084 472.704 556.306 682.266 607M689.647 -117C573.288 -85.5838 319.035 11.9491 232.895 150.751C103.685 394.084 490.505 556.306 700.067 607M706.58 -117C590.221 -85.5838 335.968 11.9491 249.828 150.751C120.617 394.084 507.438 556.306 717 607" stroke="#313131" stroke-opacity="0.7"/>
</svg>
